{
    "asset" : {
        "generator" : "Khronos glTF Blender I/O v1.1.46",
        "version" : "2.0"
    },
    "scene" : 0,
    "scenes" : [
        {
            "name" : "Scene",
            "nodes" : [
                5
            ]
        }
    ],
    "nodes" : [
        {
            "name" : "Bone.003",
            "rotation" : [
                -3.649692459362086e-08,
                -1.6897788057690377e-08,
                -0.4806954860687256,
                0.8768876194953918
            ],
            "translation" : [
                9.313374516040085e-10,
                1.929795265197754,
                -1.2490009027033011e-14
            ]
        },
        {
            "children" : [
                0
            ],
            "name" : "Bone.002",
            "rotation" : [
                4.485074356352925e-08,
                8.010818675074916e-09,
                -0.487431138753891,
                0.8731614351272583
            ],
            "scale" : [
                0.9999999403953552,
                0.9999999403953552,
                1
            ],
            "translation" : [
                0,
                2.0957865715026855,
                0
            ]
        },
        {
            "children" : [
                1
            ],
            "name" : "Bone.001",
            "rotation" : [
                0,
                4.636536488078491e-08,
                -0.3450860381126404,
                0.9385711550712585
            ],
            "translation" : [
                0,
                1.9390212297439575,
                0
            ]
        },
        {
            "children" : [
                2
            ],
            "name" : "Bone"
        },
        {
            "mesh" : 0,
            "name" : "Cylinder",
            "skin" : 0
        },
        {
            "children" : [
                4,
                3
            ],
            "name" : "Armature"
        }
    ],
    "animations" : [
        {
            "channels" : [
                {
                    "sampler" : 0,
                    "target" : {
                        "node" : 3,
                        "path" : "translation"
                    }
                },
                {
                    "sampler" : 1,
                    "target" : {
                        "node" : 3,
                        "path" : "rotation"
                    }
                },
                {
                    "sampler" : 2,
                    "target" : {
                        "node" : 3,
                        "path" : "scale"
                    }
                },
                {
                    "sampler" : 3,
                    "target" : {
                        "node" : 2,
                        "path" : "translation"
                    }
                },
                {
                    "sampler" : 4,
                    "target" : {
                        "node" : 2,
                        "path" : "rotation"
                    }
                },
                {
                    "sampler" : 5,
                    "target" : {
                        "node" : 2,
                        "path" : "scale"
                    }
                },
                {
                    "sampler" : 6,
                    "target" : {
                        "node" : 1,
                        "path" : "translation"
                    }
                },
                {
                    "sampler" : 7,
                    "target" : {
                        "node" : 1,
                        "path" : "rotation"
                    }
                },
                {
                    "sampler" : 8,
                    "target" : {
                        "node" : 1,
                        "path" : "scale"
                    }
                },
                {
                    "sampler" : 9,
                    "target" : {
                        "node" : 0,
                        "path" : "translation"
                    }
                },
                {
                    "sampler" : 10,
                    "target" : {
                        "node" : 0,
                        "path" : "rotation"
                    }
                },
                {
                    "sampler" : 11,
                    "target" : {
                        "node" : 0,
                        "path" : "scale"
                    }
                }
            ],
            "name" : "Action",
            "samplers" : [
                {
                    "input" : 7,
                    "interpolation" : "LINEAR",
                    "output" : 8
                },
                {
                    "input" : 7,
                    "interpolation" : "LINEAR",
                    "output" : 9
                },
                {
                    "input" : 7,
                    "interpolation" : "LINEAR",
                    "output" : 10
                },
                {
                    "input" : 7,
                    "interpolation" : "LINEAR",
                    "output" : 11
                },
                {
                    "input" : 7,
                    "interpolation" : "LINEAR",
                    "output" : 12
                },
                {
                    "input" : 7,
                    "interpolation" : "LINEAR",
                    "output" : 13
                },
                {
                    "input" : 7,
                    "interpolation" : "LINEAR",
                    "output" : 14
                },
                {
                    "input" : 7,
                    "interpolation" : "LINEAR",
                    "output" : 15
                },
                {
                    "input" : 7,
                    "interpolation" : "LINEAR",
                    "output" : 16
                },
                {
                    "input" : 7,
                    "interpolation" : "LINEAR",
                    "output" : 17
                },
                {
                    "input" : 7,
                    "interpolation" : "LINEAR",
                    "output" : 18
                },
                {
                    "input" : 7,
                    "interpolation" : "LINEAR",
                    "output" : 19
                }
            ]
        }
    ],
    "materials" : [
        {
            "doubleSided" : true,
            "emissiveFactor" : [
                0,
                0,
                0
            ],
            "name" : "Material",
            "pbrMetallicRoughness" : {
                "baseColorFactor" : [
                    0.800000011920929,
                    0.800000011920929,
                    0.800000011920929,
                    1
                ],
                "metallicFactor" : 0,
                "roughnessFactor" : 0.5
            }
        }
    ],
    "meshes" : [
        {
            "name" : "Cylinder",
            "primitives" : [
                {
                    "attributes" : {
                        "POSITION" : 0,
                        "NORMAL" : 1,
                        "TEXCOORD_0" : 2,
                        "JOINTS_0" : 3,
                        "WEIGHTS_0" : 4
                    },
                    "indices" : 5,
                    "material" : 0
                }
            ]
        }
    ],
    "skins" : [
        {
            "inverseBindMatrices" : 6,
            "joints" : [
                3,
                2,
                1,
                0
            ],
            "name" : "Armature"
        }
    ],
    "accessors" : [
        {
            "bufferView" : 0,
            "componentType" : 5126,
            "count" : 714,
            "max" : [
                1,
                9.013761520385742,
                1
            ],
            "min" : [
                -1,
                -0.0013957321643829346,
                -1
            ],
            "type" : "VEC3"
        },
        {
            "bufferView" : 1,
            "componentType" : 5126,
            "count" : 714,
            "type" : "VEC3"
        },
        {
            "bufferView" : 2,
            "componentType" : 5126,
            "count" : 714,
            "type" : "VEC2"
        },
        {
            "bufferView" : 3,
            "componentType" : 5123,
            "count" : 714,
            "type" : "VEC4"
        },
        {
            "bufferView" : 4,
            "componentType" : 5126,
            "count" : 714,
            "type" : "VEC4"
        },
        {
            "bufferView" : 5,
            "componentType" : 5123,
            "count" : 1524,
            "type" : "SCALAR"
        },
        {
            "bufferView" : 6,
            "componentType" : 5126,
            "count" : 4,
            "type" : "MAT4"
        },
        {
            "bufferView" : 7,
            "componentType" : 5126,
            "count" : 20,
            "max" : [
                0.8333333333333334
            ],
            "min" : [
                0.041666666666666664
            ],
            "type" : "SCALAR"
        },
        {
            "bufferView" : 8,
            "componentType" : 5126,
            "count" : 20,
            "type" : "VEC3"
        },
        {
            "bufferView" : 9,
            "componentType" : 5126,
            "count" : 20,
            "type" : "VEC4"
        },
        {
            "bufferView" : 10,
            "componentType" : 5126,
            "count" : 20,
            "type" : "VEC3"
        },
        {
            "bufferView" : 11,
            "componentType" : 5126,
            "count" : 20,
            "type" : "VEC3"
        },
        {
            "bufferView" : 12,
            "componentType" : 5126,
            "count" : 20,
            "type" : "VEC4"
        },
        {
            "bufferView" : 13,
            "componentType" : 5126,
            "count" : 20,
            "type" : "VEC3"
        },
        {
            "bufferView" : 14,
            "componentType" : 5126,
            "count" : 20,
            "type" : "VEC3"
        },
        {
            "bufferView" : 15,
            "componentType" : 5126,
            "count" : 20,
            "type" : "VEC4"
        },
        {
            "bufferView" : 16,
            "componentType" : 5126,
            "count" : 20,
            "type" : "VEC3"
        },
        {
            "bufferView" : 17,
            "componentType" : 5126,
            "count" : 20,
            "type" : "VEC3"
        },
        {
            "bufferView" : 18,
            "componentType" : 5126,
            "count" : 20,
            "type" : "VEC4"
        },
        {
            "bufferView" : 19,
            "componentType" : 5126,
            "count" : 20,
            "type" : "VEC3"
        }
    ],
    "bufferViews" : [
        {
            "buffer" : 0,
            "byteLength" : 8568,
            "byteOffset" : 0
        },
        {
            "buffer" : 0,
            "byteLength" : 8568,
            "byteOffset" : 8568
        },
        {
            "buffer" : 0,
            "byteLength" : 5712,
            "byteOffset" : 17136
        },
        {
            "buffer" : 0,
            "byteLength" : 5712,
            "byteOffset" : 22848
        },
        {
            "buffer" : 0,
            "byteLength" : 11424,
            "byteOffset" : 28560
        },
        {
            "buffer" : 0,
            "byteLength" : 3048,
            "byteOffset" : 39984
        },
        {
            "buffer" : 0,
            "byteLength" : 256,
            "byteOffset" : 43032
        },
        {
            "buffer" : 0,
            "byteLength" : 80,
            "byteOffset" : 43288
        },
        {
            "buffer" : 0,
            "byteLength" : 240,
            "byteOffset" : 43368
        },
        {
            "buffer" : 0,
            "byteLength" : 320,
            "byteOffset" : 43608
        },
        {
            "buffer" : 0,
            "byteLength" : 240,
            "byteOffset" : 43928
        },
        {
            "buffer" : 0,
            "byteLength" : 240,
            "byteOffset" : 44168
        },
        {
            "buffer" : 0,
            "byteLength" : 320,
            "byteOffset" : 44408
        },
        {
            "buffer" : 0,
            "byteLength" : 240,
            "byteOffset" : 44728
        },
        {
            "buffer" : 0,
            "byteLength" : 240,
            "byteOffset" : 44968
        },
        {
            "buffer" : 0,
            "byteLength" : 320,
            "byteOffset" : 45208
        },
        {
            "buffer" : 0,
            "byteLength" : 240,
            "byteOffset" : 45528
        },
        {
            "buffer" : 0,
            "byteLength" : 240,
            "byteOffset" : 45768
        },
        {
            "buffer" : 0,
            "byteLength" : 320,
            "byteOffset" : 46008
        },
        {
            "buffer" : 0,
            "byteLength" : 240,
            "byteOffset" : 46328
        }
    ],
    "buffers" : [
        {
            "byteLength" : 46568,
            "uri" : "data:application/octet-stream;base64,"
        }
    ]
}
